<svg width="418" height="138" viewBox="0 0 418 138" fill="none" xmlns="http://www.w3.org/2000/svg">
<g clip-path="url(#clip0_32_112)">
<mask id="path-1-outside-1_32_112" maskUnits="userSpaceOnUse" x="-1" y="6" width="420" height="122" fill="black">
<rect fill="white" x="-1" y="6" width="420" height="122"/>
<path d="M410 118C410 118.552 409.552 119 409 119H8.99999C8.44771 119 8 118.552 8 118V16C8 15.4477 8.44772 15 9 15H409C409.552 15 410 15.4477 410 16V118Z"/>
</mask>
<path d="M410 118C410 118.552 409.552 119 409 119H8.99999C8.44771 119 8 118.552 8 118V16C8 15.4477 8.44772 15 9 15H409C409.552 15 410 15.4477 410 16V118Z" fill="black" style="fill:black;fill-opacity:1;"/>
<path d="M409 119V110H8.99999V119V128H409V119ZM8 118H17V16H8H-1V118H8ZM9 15V24H409V15V6H9V15ZM410 16H401V118H410H419V16H410ZM409 15V24C404.582 24 401 20.4182 401 16H410H419C419 10.4773 414.523 6 409 6V15ZM8 16H17C17 20.4183 13.4183 24 9 24V15V6C3.47718 6 -1 10.4771 -1 16H8ZM8.99999 119V110C13.4184 110 17 113.582 17 118H8H-1C-1 123.523 3.47704 128 8.99999 128V119ZM409 119V128C414.523 128 419 123.523 419 118H410H401C401 113.582 404.582 110 409 110V119Z" fill="white" style="fill:white;fill-opacity:1;" mask="url(#path-1-outside-1_32_112)"/>
<path d="M71.3012 71.9632C69.5512 73.6755 67.1012 75.9586 63.9512 78.8125C60.6262 75.9015 58.1178 73.5899 56.4262 71.8776C54.7345 70.1652 53.3928 68.7383 52.4012 67.5967C51.4678 66.4552 50.8262 65.4278 50.4762 64.5146C50.1262 63.6013 49.9512 62.5454 49.9512 61.3467C49.9512 59.292 50.7095 57.5225 52.2262 56.0385C53.7428 54.5545 55.5512 53.8125 57.6512 53.8125C58.9345 53.8125 60.1303 54.0551 61.2387 54.5402C62.347 55.0254 63.2512 55.6961 63.9512 56.5522C64.6512 55.6961 65.5699 55.0254 66.7074 54.5402C67.8449 54.0551 69.0262 53.8125 70.2512 53.8125C72.3512 53.8125 74.1595 54.5545 75.6762 56.0385C77.1928 57.5225 77.9512 59.292 77.9512 61.3467C77.9512 62.4883 77.7616 63.5442 77.3824 64.5146C77.0033 65.4849 76.347 66.5408 75.4137 67.6824C74.422 68.8239 73.0512 70.2509 71.3012 71.9632Z" fill="white" style="fill:white;fill-opacity:1;"/>
<path d="M61.6807 32C75.4054 32.0001 87.0738 40.8074 91.4795 53.1084C91.5826 53.3601 91.6716 53.62 91.7461 53.8867C92.1736 55.1849 92.5202 56.5183 92.7812 57.8809L96.7256 73.1328C97.2697 75.2371 96.8168 77.4771 95.5 79.1982C94.1832 80.9193 92.1511 81.9277 89.9971 81.9277H87.7588V87.583C87.7588 91.4607 84.6454 94.6045 80.8047 94.6045H76.9385C76.8868 96.516 76.9795 101.324 76.9805 101.373C76.9353 101.374 72.4904 101.422 70.3945 101.429V87.583H80.8047V85.0732L79.3096 84.9404C77.0014 84.7348 74.7401 84.1598 72.6104 83.2383C70.8453 82.4746 70.0268 80.4109 70.7832 78.6289C71.5397 76.847 73.5846 76.0215 75.3496 76.7852C76.8028 77.4139 78.3461 77.806 79.9209 77.9463L80.8047 78.0254V74.9062H89.9971L85.9971 59.4385C85.777 58.2308 85.4716 57.0532 85.0859 55.9131L85.0547 55.793L85.0488 55.8066C81.6948 46.0361 72.4995 39.0206 61.6807 39.0205C48.0247 39.0205 36.9542 50.1973 36.9541 63.9844C36.9541 71.2455 40.0261 77.7811 44.9277 82.3428V101.429C41.4424 101.425 41.7488 101.373 38.3066 101.373V85.5752C33.1545 79.8911 30 72.306 30 63.9844C30.0001 46.3196 44.184 32 61.6807 32Z" fill="white" style="fill:white;fill-opacity:1;"/>
<path d="M118.56 82V54H135.04C137.6 54 139.76 54.28 141.52 54.84C143.28 55.4 144.613 56.1867 145.52 57.2C146.426 58.2133 146.88 59.4 146.88 60.76C146.88 62.3867 146.426 63.76 145.52 64.88C144.613 65.9733 143.226 66.7333 141.36 67.16L141.52 66.44C142.693 66.7067 143.8 67.1333 144.84 67.72C145.88 68.28 146.72 69.0267 147.36 69.96C148.026 70.8667 148.36 72 148.36 73.36C148.36 75.12 147.973 76.56 147.2 77.68C146.426 78.8 145.413 79.68 144.16 80.32C142.933 80.9333 141.6 81.3733 140.16 81.64C138.746 81.88 137.386 82 136.08 82H118.56ZM126.56 75.2H136.24C136.933 75.2 137.56 75.12 138.12 74.96C138.68 74.8 139.12 74.5467 139.44 74.2C139.786 73.8533 139.96 73.4 139.96 72.84C139.96 72.1733 139.733 71.68 139.28 71.36C138.826 71.04 138.293 70.8267 137.68 70.72C137.066 70.5867 136.52 70.52 136.04 70.52H126.56V75.2ZM126.56 64.72H134.6C135.4 64.72 136.08 64.6533 136.64 64.52C137.226 64.36 137.666 64.1333 137.96 63.84C138.28 63.5467 138.44 63.16 138.44 62.68C138.44 61.9867 138.066 61.5067 137.32 61.24C136.573 60.9467 135.64 60.8 134.52 60.8H126.56V64.72Z" fill="white" style="fill:white;fill-opacity:1;"/>
<path d="M162.074 82V69.48L162.874 72.56L147.834 54H158.234L169.154 68.12H163.834L174.474 54H184.234L170.594 71.48L170.794 69.16V82H162.074Z" fill="white" style="fill:white;fill-opacity:1;"/>
<path d="M224.452 82V54H233.092V82H224.452ZM202.172 82V54H210.812V82H202.172ZM205.412 71.96L205.492 64.44H229.332V71.96H205.412Z" fill="white" style="fill:white;fill-opacity:1;"/>
<path d="M254.996 82.24C251.929 82.24 249.249 81.6533 246.956 80.48C244.662 79.3067 242.876 77.6933 241.596 75.64C240.342 73.5867 239.716 71.24 239.716 68.6V54H248.436V68.44C248.436 69.72 248.716 70.84 249.276 71.8C249.836 72.76 250.609 73.5067 251.596 74.04C252.582 74.5733 253.716 74.84 254.996 74.84C256.329 74.84 257.502 74.5733 258.516 74.04C259.529 73.5067 260.316 72.76 260.876 71.8C261.462 70.84 261.756 69.72 261.756 68.44V54H270.276V68.6C270.276 71.24 269.636 73.5867 268.356 75.64C267.102 77.6933 265.329 79.3067 263.036 80.48C260.769 81.6533 258.089 82.24 254.996 82.24Z" fill="white" style="fill:white;fill-opacity:1;"/>
<path d="M276.911 82V54H284.351L297.111 69.8H291.591L304.351 54H311.791V82H303.471V74.92C303.471 72.7067 303.524 70.6267 303.631 68.68C303.738 66.7333 303.951 64.7467 304.271 62.72L305.111 65.4L295.671 76.12H293.031L283.431 65.24L284.431 62.72C284.751 64.7467 284.964 66.7333 285.071 68.68C285.178 70.6267 285.231 72.7067 285.231 74.92V82H276.911Z" fill="white" style="fill:white;fill-opacity:1;"/>
<path d="M313.839 82L327.919 54H335.359L349.359 82H340.639L333.159 67.36C332.839 66.72 332.546 66.1333 332.279 65.6C332.039 65.04 331.826 64.5067 331.639 64C331.452 63.4933 331.279 63.0133 331.119 62.56C330.959 62.08 330.812 61.6133 330.679 61.16H332.399C332.266 61.64 332.106 62.1333 331.919 62.64C331.759 63.12 331.572 63.6133 331.359 64.12C331.146 64.6267 330.906 65.1467 330.639 65.68C330.399 66.2133 330.132 66.7733 329.839 67.36L322.399 82H313.839ZM320.599 78.24L323.239 72.36H340.119L341.239 78.24H320.599Z" fill="white" style="fill:white;fill-opacity:1;"/>
<path d="M351.416 82V54H359.536L378.016 71.8L376.576 71.24C376.416 70.04 376.282 68.9733 376.176 68.04C376.096 67.1067 376.029 66.2667 375.976 65.52C375.922 64.7467 375.882 64.0267 375.856 63.36C375.829 62.6933 375.802 62.0267 375.776 61.36C375.776 60.6933 375.776 59.9733 375.776 59.2V54H384.096V82H375.896L356.096 62.4L358.936 63.36C359.016 63.68 359.096 64.04 359.176 64.44C359.256 64.8133 359.322 65.2667 359.376 65.8C359.456 66.3333 359.522 66.9867 359.576 67.76C359.629 68.5333 359.669 69.4667 359.696 70.56C359.722 71.6267 359.736 72.8933 359.736 74.36V82H351.416Z" fill="white" style="fill:white;fill-opacity:1;"/>
</g>
<defs>
<clipPath id="clip0_32_112">
<rect width="418" height="138" fill="white" style="fill:white;fill-opacity:1;"/>
</clipPath>
</defs>
</svg>
