<svg width="418" height="138" viewBox="0 0 418 138" fill="none" xmlns="http://www.w3.org/2000/svg">
<g clip-path="url(#clip0_32_103)">
<mask id="path-1-outside-1_32_103" maskUnits="userSpaceOnUse" x="-1" y="-2" width="420" height="143" fill="black">
<rect fill="white" x="-1" y="-2" width="420" height="143"/>
<path fill-rule="evenodd" clip-rule="evenodd" d="M410 130.17C410 130.722 409.552 131.17 409 131.17H8.99999C8.44771 131.17 8 130.722 8 130.17V8C8 7.44772 8.44772 7 9 7H409C409.552 7 410 7.44772 410 8V130.17Z"/>
</mask>
<path fill-rule="evenodd" clip-rule="evenodd" d="M410 130.17C410 130.722 409.552 131.17 409 131.17H8.99999C8.44771 131.17 8 130.722 8 130.17V8C8 7.44772 8.44772 7 9 7H409C409.552 7 410 7.44772 410 8V130.17Z" fill="black" style="fill:black;fill-opacity:1;"/>
<path d="M409 131.17V122.17H8.99999V131.17V140.17H409V131.17ZM8 130.17H17V8H8H-1V130.17H8ZM9 7V16H409V7V-2H9V7ZM410 8H401V130.17H410H419V8H410ZM409 7V16C404.582 16 401 12.4182 401 8H410H419C419 2.47726 414.523 -2 409 -2V7ZM8 8H17C17 12.4183 13.4183 16 9 16V7V-2C3.47715 -2 -1 2.47716 -1 8H8ZM8.99999 131.17V122.17C13.4184 122.17 17 125.752 17 130.17H8H-1C-1 135.693 3.47704 140.17 8.99999 140.17V131.17ZM409 131.17V140.17C414.523 140.17 419 135.693 419 130.17H410H401C401 125.752 404.582 122.17 409 122.17V131.17Z" fill="white" style="fill:white;fill-opacity:1;" mask="url(#path-1-outside-1_32_103)"/>
<path d="M75.9694 74.1306C73.7588 76.3128 70.6639 79.2223 66.6848 82.8592C62.4847 79.1495 59.3162 76.2036 57.1792 74.0215C55.0423 71.8394 53.3475 70.0209 52.0948 68.5662C50.9159 67.1114 50.1053 65.8021 49.6632 64.6383C49.2211 63.4745 49 62.1289 49 60.6014C49 57.9828 49.9579 55.728 51.8738 53.8368C53.7896 51.9456 56.0739 51 58.7267 51C60.3478 51 61.8583 51.3091 63.2584 51.9274C64.6584 52.5457 65.8006 53.4003 66.6848 54.4914C67.5691 53.4003 68.7296 52.5457 70.1665 51.9274C71.6034 51.3091 73.0956 51 74.643 51C77.2957 51 79.58 51.9456 81.4959 53.8368C83.4117 55.728 84.3697 57.9828 84.3697 60.6014C84.3697 62.0561 84.1302 63.4018 83.6512 64.6383C83.1723 65.8749 82.3433 67.2205 81.1643 68.6753C79.9116 70.13 78.18 71.9485 75.9694 74.1306Z" fill="white" style="fill:white;fill-opacity:1;"/>
<path d="M68.2441 22.8037C85.6785 22.8038 100.5 33.9923 106.097 49.6182C106.228 49.938 106.341 50.2677 106.436 50.6064C106.979 52.2557 107.42 53.9497 107.752 55.6807L112.762 75.0547C113.453 77.7278 112.878 80.5744 111.205 82.7607C109.532 84.9469 106.95 86.2266 104.214 86.2266H101.371V93.4111C101.371 98.3369 97.416 102.33 92.5371 102.33H87.626C87.5603 104.762 87.6789 110.887 87.6797 110.929C87.6418 110.929 81.9805 110.991 79.3135 110.999V93.4111H92.5371V90.2236L90.6377 90.0537C87.7057 89.7925 84.8334 89.0631 82.1279 87.8926C79.8858 86.9224 78.8468 84.3008 79.8076 82.0371C80.7686 79.7735 83.3653 78.7243 85.6074 79.6943C87.4535 80.4931 89.4134 80.9917 91.4141 81.1699L92.5371 81.2695V77.3076H104.214L99.1328 57.6592C98.8532 56.1252 98.4654 54.6298 97.9756 53.1816L97.9355 53.0293L97.9287 53.0459C93.6681 40.6344 81.9873 31.7227 68.2441 31.7227C50.897 31.7227 36.834 45.9208 36.834 63.4346C36.8341 72.6584 40.7371 80.9603 46.9639 86.7549V111C42.5355 110.996 42.925 110.929 38.5518 110.929V90.8604C32.0071 83.64 28.0001 74.0053 28 63.4346C28 40.9951 46.0182 22.8037 68.2441 22.8037Z" fill="white" style="fill:white;fill-opacity:1;"/>
<path d="M144.307 71V45.8H159.139C161.443 45.8 163.387 46.052 164.971 46.556C166.555 47.06 167.755 47.768 168.571 48.6801C169.387 49.5921 169.795 50.66 169.795 51.884C169.795 53.348 169.387 54.584 168.571 55.592C167.755 56.576 166.507 57.26 164.827 57.644L164.971 56.996C166.027 57.2361 167.023 57.62 167.959 58.148C168.895 58.652 169.651 59.324 170.227 60.164C170.827 60.98 171.127 62 171.127 63.2241C171.127 64.8081 170.779 66.1041 170.083 67.1121C169.387 68.1201 168.475 68.9121 167.347 69.4881C166.243 70.0401 165.043 70.4361 163.747 70.6761C162.475 70.892 161.251 71 160.075 71H144.307ZM151.507 64.8801H160.219C160.843 64.8801 161.407 64.8081 161.911 64.664C162.415 64.5201 162.811 64.2921 163.099 63.9801C163.411 63.6681 163.567 63.26 163.567 62.7561C163.567 62.156 163.363 61.7121 162.955 61.4241C162.547 61.136 162.067 60.944 161.515 60.8481C160.963 60.7281 160.471 60.6681 160.039 60.6681H151.507V64.8801ZM151.507 55.4481H158.743C159.463 55.4481 160.075 55.3881 160.579 55.2681C161.107 55.1241 161.503 54.92 161.767 54.656C162.055 54.392 162.199 54.044 162.199 53.6121C162.199 52.9881 161.863 52.556 161.191 52.316C160.519 52.052 159.679 51.92 158.671 51.92H151.507V55.4481Z" fill="white" style="fill:white;fill-opacity:1;"/>
<path d="M183.47 71V59.732L184.19 62.504L170.654 45.8H180.014L189.842 58.5081H185.054L194.63 45.8H203.414L191.138 61.5321L191.318 59.444V71H183.47Z" fill="white" style="fill:white;fill-opacity:1;"/>
<path d="M239.61 71V45.8H247.386V71H239.61ZM219.558 71V45.8H227.334V71H219.558ZM222.474 61.9641L222.546 55.1961H244.002V61.9641H222.474Z" fill="white" style="fill:white;fill-opacity:1;"/>
<path d="M267.099 71.2161C264.339 71.2161 261.927 70.688 259.863 69.632C257.799 68.576 256.191 67.1241 255.039 65.2761C253.911 63.4281 253.347 61.316 253.347 58.9401V45.8H261.195V58.7961C261.195 59.9481 261.447 60.956 261.951 61.82C262.455 62.684 263.151 63.3561 264.039 63.8361C264.927 64.316 265.947 64.5561 267.099 64.5561C268.299 64.5561 269.355 64.316 270.267 63.8361C271.179 63.3561 271.887 62.684 272.391 61.82C272.919 60.956 273.183 59.9481 273.183 58.7961V45.8H280.851V58.9401C280.851 61.316 280.275 63.4281 279.123 65.2761C277.995 67.1241 276.399 68.576 274.335 69.632C272.295 70.688 269.883 71.2161 267.099 71.2161Z" fill="white" style="fill:white;fill-opacity:1;"/>
<path d="M286.823 71V45.8H293.519L305.003 60.0201H300.035L311.519 45.8H318.215V71H310.727V64.628C310.727 62.636 310.775 60.7641 310.871 59.0121C310.967 57.26 311.159 55.472 311.447 53.648L312.203 56.0601L303.707 65.708H301.331L292.691 55.916L293.591 53.648C293.879 55.472 294.071 57.26 294.167 59.0121C294.263 60.7641 294.311 62.636 294.311 64.628V71H286.823Z" fill="white" style="fill:white;fill-opacity:1;"/>
<path d="M320.058 71L332.73 45.8H339.426L352.026 71H344.178L337.446 57.824C337.158 57.2481 336.894 56.72 336.654 56.24C336.438 55.736 336.246 55.2561 336.078 54.8C335.91 54.344 335.754 53.9121 335.61 53.504C335.466 53.0721 335.334 52.6521 335.214 52.244H336.762C336.642 52.676 336.498 53.12 336.33 53.576C336.186 54.008 336.018 54.452 335.826 54.908C335.634 55.364 335.418 55.832 335.178 56.312C334.962 56.7921 334.722 57.2961 334.458 57.824L327.762 71H320.058ZM326.142 67.6161L328.518 62.3241H343.71L344.718 67.6161H326.142Z" fill="white" style="fill:white;fill-opacity:1;"/>
<path d="M353.878 71V45.8H361.186L377.818 61.82L376.522 61.316C376.378 60.236 376.258 59.2761 376.162 58.4361C376.09 57.5961 376.03 56.8401 375.982 56.168C375.934 55.472 375.898 54.824 375.874 54.224C375.85 53.624 375.826 53.024 375.802 52.424C375.802 51.824 375.802 51.176 375.802 50.48V45.8H383.29V71H375.91L358.09 53.3601L360.646 54.224C360.718 54.512 360.79 54.8361 360.862 55.1961C360.934 55.5321 360.994 55.9401 361.042 56.42C361.114 56.9001 361.174 57.4881 361.222 58.1841C361.27 58.8801 361.306 59.72 361.33 60.7041C361.354 61.6641 361.366 62.8041 361.366 64.1241V71H353.878Z" fill="white" style="fill:white;fill-opacity:1;"/>
<path d="M142.875 97V78.8H147.087L160.269 91.8L159.671 91.6701C159.567 91.0114 159.48 90.3787 159.411 89.772C159.359 89.1654 159.316 88.5847 159.281 88.03C159.246 87.4754 159.22 86.938 159.203 86.418C159.186 85.898 159.168 85.3781 159.151 84.8581C159.151 84.3381 159.151 83.8181 159.151 83.298V78.8H163.441V97H159.177L145.579 83.584L146.645 83.7661C146.697 84.0261 146.74 84.3207 146.775 84.6501C146.827 84.9794 146.87 85.3521 146.905 85.7681C146.957 86.1841 147 86.6521 147.035 87.1721C147.087 87.6747 147.122 88.238 147.139 88.862C147.156 89.486 147.165 90.1707 147.165 90.916V97H142.875Z" fill="white" style="fill:white;fill-opacity:1;"/>
<path d="M177.839 97.2601C176.123 97.2601 174.563 97.0261 173.159 96.5581C171.755 96.0727 170.542 95.4054 169.519 94.556C168.496 93.6894 167.699 92.6841 167.127 91.5401C166.572 90.396 166.295 89.1567 166.295 87.8221C166.295 86.4874 166.572 85.2481 167.127 84.104C167.699 82.96 168.496 81.9634 169.519 81.1141C170.559 80.2474 171.772 79.58 173.159 79.112C174.563 78.6267 176.114 78.384 177.813 78.384C179.494 78.384 181.037 78.6267 182.441 79.112C183.845 79.58 185.058 80.2474 186.081 81.1141C187.104 81.9634 187.892 82.96 188.447 84.104C189.019 85.2481 189.305 86.4874 189.305 87.8221C189.305 89.1567 189.019 90.396 188.447 91.5401C187.892 92.6841 187.104 93.6894 186.081 94.556C185.058 95.4054 183.845 96.0727 182.441 96.5581C181.037 97.0261 179.503 97.2601 177.839 97.2601ZM177.813 93.1001C178.836 93.1001 179.772 92.97 180.621 92.71C181.488 92.4327 182.233 92.06 182.857 91.592C183.481 91.1067 183.958 90.5434 184.287 89.9021C184.634 89.2607 184.807 88.5674 184.807 87.8221C184.807 87.0767 184.634 86.3834 184.287 85.7421C183.958 85.1007 183.481 84.546 182.857 84.078C182.233 83.5927 181.488 83.22 180.621 82.96C179.772 82.6827 178.836 82.544 177.813 82.544C176.79 82.544 175.846 82.6827 174.979 82.96C174.13 83.22 173.384 83.5927 172.743 84.078C172.119 84.546 171.642 85.1007 171.313 85.7421C170.984 86.3834 170.819 87.0767 170.819 87.8221C170.819 88.5674 170.984 89.2607 171.313 89.9021C171.642 90.5434 172.119 91.1067 172.743 91.592C173.384 92.06 174.13 92.4327 174.979 92.71C175.846 92.97 176.79 93.1001 177.813 93.1001Z" fill="white" style="fill:white;fill-opacity:1;"/>
<path d="M196.678 97V82.7001H189.45V78.8H208.456V82.7001H201.098V97H196.678Z" fill="white" style="fill:white;fill-opacity:1;"/>
<path d="M219.485 97V78.8H229.859C231.453 78.8 232.797 78.982 233.889 79.3461C234.998 79.71 235.83 80.2214 236.385 80.8801C236.939 81.5387 237.217 82.336 237.217 83.272C237.217 84.2774 236.913 85.1441 236.307 85.8721C235.7 86.5827 234.781 87.0767 233.551 87.354L233.681 86.8861C234.461 87.0594 235.189 87.3367 235.865 87.718C236.558 88.082 237.113 88.576 237.529 89.2001C237.962 89.8241 238.179 90.5867 238.179 91.488C238.179 92.5974 237.945 93.5074 237.477 94.2181C237.009 94.9287 236.393 95.4921 235.631 95.9081C234.868 96.3067 234.036 96.5927 233.135 96.7661C232.251 96.9221 231.384 97 230.535 97H219.485ZM223.645 93.3081H230.639C231.245 93.3081 231.783 93.2387 232.251 93.1001C232.736 92.9614 233.117 92.7447 233.395 92.4501C233.689 92.1381 233.837 91.748 233.837 91.28C233.837 90.7427 233.655 90.3354 233.291 90.058C232.927 89.7634 232.485 89.564 231.965 89.46C231.445 89.3387 230.959 89.278 230.509 89.278H223.645V93.3081ZM223.645 85.9501H229.911C230.483 85.9501 230.985 85.8807 231.419 85.7421C231.869 85.6034 232.216 85.4041 232.459 85.1441C232.719 84.8841 232.849 84.5547 232.849 84.1561C232.849 83.5494 232.545 83.1247 231.939 82.882C231.349 82.6221 230.621 82.4921 229.755 82.4921H223.645V85.9501Z" fill="white" style="fill:white;fill-opacity:1;"/>
<path d="M246.868 97V88.862L247.388 90.8641L237.612 78.8H243.15L250.248 87.9781H248.012L254.928 78.8H260.05L251.184 90.162L251.314 88.654V97H246.868Z" fill="white" style="fill:white;fill-opacity:1;"/>
<path d="M279.931 97.2601C278.354 97.2601 276.898 97.0694 275.563 96.688C274.228 96.2894 273.067 95.7001 272.079 94.9201C271.091 94.1401 270.32 93.1607 269.765 91.9821C269.21 90.7861 268.933 89.3994 268.933 87.8221C268.933 86.4701 269.219 85.2307 269.791 84.104C270.38 82.96 271.195 81.9634 272.235 81.1141C273.292 80.2647 274.532 79.606 275.953 79.1381C277.374 78.6701 278.917 78.4361 280.581 78.4361C281.985 78.4361 283.25 78.5834 284.377 78.8781C285.521 79.1727 286.526 79.5454 287.393 79.996C288.277 80.4467 288.988 80.932 289.525 81.452L286.847 84.4421C286.31 84.0434 285.72 83.6967 285.079 83.4021C284.455 83.09 283.762 82.8387 282.999 82.648C282.254 82.44 281.439 82.3361 280.555 82.3361C279.567 82.3361 278.648 82.4747 277.799 82.752C276.967 83.0294 276.23 83.4194 275.589 83.9221C274.965 84.4074 274.48 84.9881 274.133 85.6641C273.786 86.3227 273.613 87.0421 273.613 87.8221C273.613 88.8447 273.795 89.7114 274.159 90.4221C274.54 91.1327 275.052 91.7047 275.693 92.1381C276.334 92.5541 277.062 92.8661 277.877 93.0741C278.692 93.2647 279.55 93.3601 280.451 93.3601C281.37 93.3601 282.219 93.2734 282.999 93.1001C283.779 92.9267 284.455 92.6927 285.027 92.3981C285.616 92.0861 286.067 91.7134 286.379 91.28C286.691 90.8467 286.838 90.3701 286.821 89.8501V89.3561L287.419 90.4481H280.191V87.042H291.085C291.12 87.302 291.146 87.5881 291.163 87.9001C291.18 88.1947 291.189 88.4547 291.189 88.68C291.189 88.9054 291.189 89.0527 291.189 89.1221C291.189 90.4741 290.92 91.6614 290.383 92.6841C289.846 93.7067 289.083 94.5561 288.095 95.2321C287.107 95.8907 285.92 96.3934 284.533 96.7401C283.146 97.0867 281.612 97.2601 279.931 97.2601Z" fill="white" style="fill:white;fill-opacity:1;"/>
<path d="M293.936 97V78.8H310.264V82.57H298.226V93.23H310.524V97H293.936ZM296.276 89.5381V85.9501H309.094V89.5381H296.276Z" fill="white" style="fill:white;fill-opacity:1;"/>
<path d="M313.933 97V78.8H318.145L331.327 91.8L330.729 91.6701C330.625 91.0114 330.538 90.3787 330.469 89.772C330.417 89.1654 330.373 88.5847 330.339 88.03C330.304 87.4754 330.278 86.938 330.261 86.418C330.243 85.898 330.226 85.3781 330.209 84.8581C330.209 84.3381 330.209 83.8181 330.209 83.298V78.8H334.499V97H330.235L316.637 83.584L317.703 83.7661C317.755 84.0261 317.798 84.3207 317.833 84.6501C317.885 84.9794 317.928 85.3521 317.963 85.7681C318.015 86.1841 318.058 86.6521 318.093 87.1721C318.145 87.6747 318.179 88.238 318.197 88.862C318.214 89.486 318.223 90.1707 318.223 90.916V97H313.933Z" fill="white" style="fill:white;fill-opacity:1;"/>
<path d="M344.721 97L353.769 78.8H357.929L366.925 97H362.349L356.967 86.21C356.776 85.8287 356.603 85.4734 356.447 85.1441C356.291 84.7974 356.143 84.4681 356.005 84.1561C355.866 83.8267 355.736 83.5061 355.615 83.194C355.511 82.8647 355.398 82.5267 355.277 82.18L356.291 82.154C356.169 82.5181 356.039 82.8734 355.901 83.2201C355.779 83.5494 355.641 83.8787 355.485 84.208C355.346 84.5374 355.199 84.8754 355.043 85.222C354.887 85.5514 354.722 85.8894 354.549 86.236L349.193 97H344.721ZM348.907 93.7761L350.363 90.4481H361.257L361.855 93.7761H348.907Z" fill="white" style="fill:white;fill-opacity:1;"/>
<path d="M368.831 97V93.1001H373.719V82.7001H368.831V78.8H383.053V82.7001H378.139V93.1001H383.053V97H368.831Z" fill="white" style="fill:white;fill-opacity:1;"/>
</g>
<defs>
<clipPath id="clip0_32_103">
<rect width="418" height="138" fill="white" style="fill:white;fill-opacity:1;"/>
</clipPath>
</defs>
</svg>
