<svg width="398" height="118" viewBox="0 0 398 118" fill="none" xmlns="http://www.w3.org/2000/svg">
<mask id="path-1-outside-1_32_193" maskUnits="userSpaceOnUse" x="79" y="30" width="298" height="61" fill="black">
<rect fill="white" x="79" y="30" width="298" height="61"/>
<path d="M369 81C369 82.1046 368.105 83 367 83H89C87.8954 83 87 82.1046 87 81V40C87 38.8954 87.8954 38 89 38H367C368.105 38 369 38.8954 369 40V81Z"/>
</mask>
<path d="M369 81C369 82.1046 368.105 83 367 83H89C87.8954 83 87 82.1046 87 81V40C87 38.8954 87.8954 38 89 38H367C368.105 38 369 38.8954 369 40V81Z" fill="black" style="fill:black;fill-opacity:1;"/>
<path d="M367 83V75H89V83V91H367V83ZM87 81H95V40H87H79V81H87ZM89 38V46H367V38V30H89V38ZM369 40H361V81H369H377V40H369ZM367 38V46C363.686 46 361 43.3137 361 40H369H377C377 34.4772 372.523 30 367 30V38ZM87 40H95C95 43.3137 92.3137 46 89 46V38V30C83.4772 30 79 34.4772 79 40H87ZM89 83V75C92.3137 75 95 77.6863 95 81H87H79C79 86.5228 83.4771 91 89 91V83ZM367 83V91C372.523 91 377 86.5228 377 81H369H361C361 77.6863 363.686 75 367 75V83Z" fill="white" style="fill:white;fill-opacity:1;" mask="url(#path-1-outside-1_32_193)"/>
<path d="M118.904 74V48.8H133.736C136.04 48.8 137.984 49.052 139.568 49.556C141.152 50.06 142.352 50.768 143.168 51.68C143.984 52.592 144.392 53.66 144.392 54.884C144.392 56.348 143.984 57.584 143.168 58.592C142.352 59.576 141.104 60.26 139.424 60.644L139.568 59.996C140.624 60.236 141.62 60.62 142.556 61.148C143.492 61.652 144.248 62.324 144.824 63.164C145.424 63.98 145.724 65 145.724 66.224C145.724 67.808 145.376 69.104 144.68 70.112C143.984 71.12 143.072 71.912 141.944 72.488C140.84 73.04 139.64 73.436 138.344 73.676C137.072 73.892 135.848 74 134.672 74H118.904ZM126.104 67.88H134.816C135.44 67.88 136.004 67.808 136.508 67.664C137.012 67.52 137.408 67.292 137.696 66.98C138.008 66.668 138.164 66.26 138.164 65.756C138.164 65.156 137.96 64.712 137.552 64.424C137.144 64.136 136.664 63.944 136.112 63.848C135.56 63.728 135.068 63.668 134.636 63.668H126.104V67.88ZM126.104 58.448H133.34C134.06 58.448 134.672 58.388 135.176 58.268C135.704 58.124 136.1 57.92 136.364 57.656C136.652 57.392 136.796 57.044 136.796 56.612C136.796 55.988 136.46 55.556 135.788 55.316C135.116 55.052 134.276 54.92 133.268 54.92H126.104V58.448Z" fill="white" style="fill:white;fill-opacity:1;"/>
<path d="M158.067 74V62.732L158.787 65.504L145.251 48.8H154.611L164.439 61.508H159.651L169.227 48.8H178.011L165.735 64.532L165.915 62.444V74H158.067Z" fill="white" style="fill:white;fill-opacity:1;"/>
<path d="M214.208 74V48.8H221.984V74H214.208ZM194.156 74V48.8H201.932V74H194.156ZM197.072 64.964L197.144 58.196H218.6V64.964H197.072Z" fill="white" style="fill:white;fill-opacity:1;"/>
<path d="M241.697 74.216C238.937 74.216 236.525 73.688 234.461 72.632C232.397 71.576 230.789 70.124 229.637 68.276C228.509 66.428 227.945 64.316 227.945 61.94V48.8H235.793V61.796C235.793 62.948 236.045 63.956 236.549 64.82C237.053 65.684 237.749 66.356 238.637 66.836C239.525 67.316 240.545 67.556 241.697 67.556C242.897 67.556 243.953 67.316 244.865 66.836C245.777 66.356 246.485 65.684 246.989 64.82C247.517 63.956 247.781 62.948 247.781 61.796V48.8H255.449V61.94C255.449 64.316 254.873 66.428 253.721 68.276C252.593 70.124 250.997 71.576 248.933 72.632C246.893 73.688 244.481 74.216 241.697 74.216Z" fill="white" style="fill:white;fill-opacity:1;"/>
<path d="M261.421 74V48.8H268.117L279.601 63.02H274.633L286.117 48.8H292.813V74H285.325V67.628C285.325 65.636 285.373 63.764 285.469 62.012C285.565 60.26 285.757 58.472 286.045 56.648L286.801 59.06L278.305 68.708H275.929L267.289 58.916L268.189 56.648C268.477 58.472 268.669 60.26 268.765 62.012C268.861 63.764 268.909 65.636 268.909 67.628V74H261.421Z" fill="white" style="fill:white;fill-opacity:1;"/>
<path d="M294.656 74L307.328 48.8H314.024L326.624 74H318.776L312.044 60.824C311.756 60.248 311.492 59.72 311.252 59.24C311.036 58.736 310.844 58.256 310.676 57.8C310.508 57.344 310.352 56.912 310.208 56.504C310.064 56.072 309.932 55.652 309.812 55.244H311.36C311.24 55.676 311.096 56.12 310.928 56.576C310.784 57.008 310.616 57.452 310.424 57.908C310.232 58.364 310.016 58.832 309.776 59.312C309.56 59.792 309.32 60.296 309.056 60.824L302.36 74H294.656ZM300.74 70.616L303.116 65.324H318.308L319.316 70.616H300.74Z" fill="white" style="fill:white;fill-opacity:1;"/>
<path d="M328.475 74V48.8H335.783L352.415 64.82L351.119 64.316C350.975 63.236 350.855 62.276 350.759 61.436C350.687 60.596 350.627 59.84 350.579 59.168C350.531 58.472 350.495 57.824 350.471 57.224C350.447 56.624 350.423 56.024 350.399 55.424C350.399 54.824 350.399 54.176 350.399 53.48V48.8H357.887V74H350.507L332.687 56.36L335.243 57.224C335.315 57.512 335.387 57.836 335.459 58.196C335.531 58.532 335.591 58.94 335.639 59.42C335.711 59.9 335.771 60.488 335.819 61.184C335.867 61.88 335.903 62.72 335.927 63.704C335.951 64.664 335.963 65.804 335.963 67.124V74H328.475Z" fill="white" style="fill:white;fill-opacity:1;"/>
<path d="M60.4746 38.5C63.9033 38.5 66.9991 39.6791 69.5264 42.002C72.0626 44.3331 73.5 47.3476 73.5 50.8359C73.5 52.5647 73.1919 54.256 72.5254 55.8584C71.8575 57.4639 70.8087 58.9729 69.585 60.3789L69.54 60.4307L69.4941 60.4795C68.2788 61.7937 66.6617 63.3704 64.6826 65.1895C62.6833 67.0271 59.9212 69.4445 56.417 72.4268L53.5498 74.8672L50.6416 72.4756C46.934 69.4265 44.0591 66.9416 42.0684 65.0488C40.1615 63.2358 38.5992 61.6775 37.4092 60.3906L37.3623 60.3408L37.3184 60.29C36.1148 58.9073 35.0612 57.4137 34.415 55.8301C33.7655 54.2381 33.5 52.5431 33.5 50.8359C33.5 47.3476 34.9374 44.3331 37.4736 42.002C40.0009 39.6791 43.0967 38.5 46.5254 38.5C48.491 38.5 50.4006 38.8516 52.208 39.5947C52.6558 39.7789 53.0914 39.9859 53.5137 40.2139C53.955 39.979 54.4102 39.7675 54.8779 39.5801C56.6692 38.8624 58.545 38.5 60.4746 38.5Z" fill="black" stroke="white" style="fill:black;fill-opacity:1;stroke:white;stroke-opacity:1;" stroke-width="9"/>
<mask id="path-5-outside-2_32_193" maskUnits="userSpaceOnUse" x="10.4541" y="10.8042" width="94" height="97" fill="black">
<rect fill="white" x="10.4541" y="10.8042" width="94" height="97"/>
<path d="M55.0469 18.8042C70.8998 18.8042 84.3778 28.9776 89.4668 43.186C89.5859 43.4769 89.6883 43.7773 89.7744 44.0854C90.2683 45.5852 90.6691 47.1257 90.9707 48.6997L95.5264 66.3159C96.1549 68.7466 95.6324 71.3347 94.1113 73.3228C92.5903 75.3106 90.242 76.4741 87.7539 76.4741H85.1699V83.0073C85.1699 87.4863 81.573 91.1177 77.1367 91.1177H72.6709C72.611 93.3372 72.7197 98.936 72.7197 98.936C72.6764 98.9365 67.5366 98.991 65.1133 98.9985V83.0073H77.1367V80.1079L75.4092 79.9546C72.7433 79.717 70.1318 79.0531 67.6719 77.9888C65.6331 77.1066 64.6879 74.7229 65.5615 72.6646C66.4353 70.6065 68.7963 69.6529 70.835 70.5347C72.5135 71.2609 74.2961 71.7134 76.1152 71.8755L77.1367 71.9673V68.3647H87.7539L83.1348 50.4985C82.8805 49.1034 82.5265 47.7433 82.0811 46.4263L82.0459 46.2876L82.0391 46.3032C78.1649 35.0175 67.5434 26.9146 55.0469 26.9146C39.2734 26.9147 26.4863 39.8244 26.4863 55.7495C26.4864 64.1368 30.0353 71.6856 35.6973 76.9546V98.9995C31.6707 98.9958 32.0249 98.936 28.0488 98.936V80.687C22.0978 74.1215 18.4541 65.3614 18.4541 55.7495C18.4541 35.3455 34.837 18.8043 55.0469 18.8042Z"/>
</mask>
<path d="M55.0469 18.8042C70.8998 18.8042 84.3778 28.9776 89.4668 43.186C89.5859 43.4769 89.6883 43.7773 89.7744 44.0854C90.2683 45.5852 90.6691 47.1257 90.9707 48.6997L95.5264 66.3159C96.1549 68.7466 95.6324 71.3347 94.1113 73.3228C92.5903 75.3106 90.242 76.4741 87.7539 76.4741H85.1699V83.0073C85.1699 87.4863 81.573 91.1177 77.1367 91.1177H72.6709C72.611 93.3372 72.7197 98.936 72.7197 98.936C72.6764 98.9365 67.5366 98.991 65.1133 98.9985V83.0073H77.1367V80.1079L75.4092 79.9546C72.7433 79.717 70.1318 79.0531 67.6719 77.9888C65.6331 77.1066 64.6879 74.7229 65.5615 72.6646C66.4353 70.6065 68.7963 69.6529 70.835 70.5347C72.5135 71.2609 74.2961 71.7134 76.1152 71.8755L77.1367 71.9673V68.3647H87.7539L83.1348 50.4985C82.8805 49.1034 82.5265 47.7433 82.0811 46.4263L82.0459 46.2876L82.0391 46.3032C78.1649 35.0175 67.5434 26.9146 55.0469 26.9146C39.2734 26.9147 26.4863 39.8244 26.4863 55.7495C26.4864 64.1368 30.0353 71.6856 35.6973 76.9546V98.9995C31.6707 98.9958 32.0249 98.936 28.0488 98.936V80.687C22.0978 74.1215 18.4541 65.3614 18.4541 55.7495C18.4541 35.3455 34.837 18.8043 55.0469 18.8042Z" fill="black" style="fill:black;fill-opacity:1;"/>
<path d="M55.0469 18.8042V10.8042H55.0468L55.0469 18.8042ZM89.4668 43.186L81.9353 45.8836L81.9958 46.0524L82.0637 46.2183L89.4668 43.186ZM89.7744 44.0854L82.0695 46.2383L82.1187 46.4144L82.1759 46.588L89.7744 44.0854ZM90.9707 48.6997L83.1136 50.2052L83.1616 50.4557L83.2255 50.7027L90.9707 48.6997ZM95.5264 66.3159L103.272 64.3131L103.272 64.313L95.5264 66.3159ZM94.1113 73.3228L100.465 78.1842L100.465 78.1839L94.1113 73.3228ZM85.1699 76.4741V68.4741H77.1699V76.4741H85.1699ZM72.6709 91.1177V83.1177H64.884L64.6738 90.9017L72.6709 91.1177ZM72.7197 98.936L72.8087 106.936L80.8749 106.846L80.7182 98.7807L72.7197 98.936ZM65.1133 98.9985H57.1133V107.024L65.1382 106.998L65.1133 98.9985ZM65.1133 83.0073V75.0073H57.1133V83.0073H65.1133ZM77.1367 83.0073V91.0073H85.1367V83.0073H77.1367ZM77.1367 80.1079H85.1367V72.7865L77.8439 72.1392L77.1367 80.1079ZM75.4092 79.9546L74.6992 87.923L74.702 87.9233L75.4092 79.9546ZM67.6719 77.9888L64.495 85.3309L64.4951 85.331L67.6719 77.9888ZM65.5615 72.6646L58.1977 69.5382L58.1974 69.5389L65.5615 72.6646ZM70.835 70.5347L74.0118 63.1925L74.0108 63.1921L70.835 70.5347ZM76.1152 71.8755L76.8313 63.9076L76.8253 63.9071L76.1152 71.8755ZM77.1367 71.9673L76.4207 79.9352L85.1367 80.7185V71.9673H77.1367ZM77.1367 68.3647V60.3647H69.1367V68.3647H77.1367ZM87.7539 68.3647V76.3647H98.0853L95.4992 66.3623L87.7539 68.3647ZM83.1348 50.4985L75.2644 51.9328L75.3166 52.2192L75.3894 52.501L83.1348 50.4985ZM82.0811 46.4263L74.3264 48.3922L74.403 48.6943L74.5028 48.9895L82.0811 46.4263ZM82.0459 46.2876L89.8006 44.3216L84.0675 21.7077L74.7166 43.081L82.0459 46.2876ZM82.0391 46.3032L74.4725 48.9007L81.1388 68.3201L89.3683 49.5098L82.0391 46.3032ZM55.0469 26.9146V18.9146H55.0468L55.0469 26.9146ZM26.4863 55.7495H18.4863V55.7496L26.4863 55.7495ZM35.6973 76.9546H43.6973V73.4712L41.1472 71.0981L35.6973 76.9546ZM35.6973 98.9995L35.6899 107L43.6973 107.007V98.9995H35.6973ZM28.0488 98.936H20.0488V106.936L28.0488 106.936L28.0488 98.936ZM28.0488 80.687H36.0488V77.6009L33.9762 75.3143L28.0488 80.687ZM18.4541 55.7495H10.4541V55.7495L18.4541 55.7495ZM55.0469 18.8042V26.8042C67.3724 26.8042 77.9343 34.7127 81.9353 45.8836L89.4668 43.186L96.9983 40.4885C90.8214 23.2425 74.4273 10.8042 55.0469 10.8042V18.8042ZM89.4668 43.186L82.0637 46.2183C82.06 46.2091 82.063 46.215 82.0695 46.2383L89.7744 44.0854L97.4793 41.9326C97.3136 41.3396 97.1119 40.7447 96.8699 40.1538L89.4668 43.186ZM89.7744 44.0854L82.1759 46.588C82.5628 47.7627 82.877 48.9702 83.1136 50.2052L90.9707 48.6997L98.8278 47.1942C98.4612 45.2811 97.9739 43.4076 97.3729 41.5829L89.7744 44.0854ZM90.9707 48.6997L83.2255 50.7027L87.7812 68.3189L95.5264 66.3159L103.272 64.313L98.7159 46.6967L90.9707 48.6997ZM95.5264 66.3159L87.7811 68.3187C87.788 68.3455 87.7889 68.3736 87.7832 68.4018C87.7776 68.4299 87.7673 68.4491 87.7577 68.4616L94.1113 73.3228L100.465 78.1839C103.486 74.236 104.513 69.1152 103.272 64.3131L95.5264 66.3159ZM94.1113 73.3228L87.7579 68.4613C87.7528 68.4679 87.7491 68.4713 87.7471 68.4729C87.7448 68.4748 87.7432 68.4757 87.7426 68.476C87.742 68.4763 87.7429 68.4758 87.7455 68.4752C87.7485 68.4745 87.7517 68.4741 87.7539 68.4741V76.4741V84.4741C92.7486 84.4741 97.4396 82.1379 100.465 78.1842L94.1113 73.3228ZM87.7539 76.4741V68.4741H85.1699V76.4741V84.4741H87.7539V76.4741ZM85.1699 76.4741H77.1699V83.0073H85.1699H93.1699V76.4741H85.1699ZM85.1699 83.0073H77.1699C77.1699 83.0306 77.1677 83.0448 77.1662 83.0525C77.1645 83.0605 77.1624 83.067 77.16 83.0727C77.1547 83.0854 77.1455 83.0998 77.1331 83.1123C77.1208 83.1248 77.1146 83.1261 77.1216 83.1231C77.1255 83.1214 77.131 83.1196 77.1369 83.1184C77.1432 83.1171 77.1441 83.1177 77.1367 83.1177V91.1177V99.1177C86.0632 99.1177 93.1699 91.8323 93.1699 83.0073H85.1699ZM77.1367 91.1177V83.1177H72.6709V91.1177V99.1177H77.1367V91.1177ZM72.6709 91.1177L64.6738 90.9017C64.639 92.1925 64.654 94.3027 64.6734 95.9531C64.6834 96.8079 64.6954 97.5905 64.7048 98.1589C64.7095 98.4434 64.7136 98.6751 64.7165 98.8363C64.7179 98.9169 64.7191 98.9799 64.7199 99.0231C64.7203 99.0448 64.7207 99.0614 64.7209 99.0729C64.721 99.0787 64.7211 99.0831 64.7211 99.0862C64.7212 99.0877 64.7212 99.0889 64.7212 99.0898C64.7212 99.0902 64.7212 99.0906 64.7212 99.0909C64.7212 99.091 64.7212 99.0911 64.7212 99.0912C64.7212 99.0913 64.7212 99.0914 72.7197 98.936C80.7182 98.7807 80.7182 98.7807 80.7182 98.7807C80.7182 98.7807 80.7182 98.7807 80.7182 98.7807C80.7182 98.7806 80.7182 98.7805 80.7182 98.7802C80.7182 98.7797 80.7182 98.7789 80.7182 98.7778C80.7181 98.7755 80.718 98.7718 80.718 98.7669C80.7178 98.757 80.7175 98.742 80.7171 98.7221C80.7164 98.6822 80.7152 98.6228 80.7139 98.546C80.7111 98.3923 80.7071 98.1692 80.7026 97.8942C80.6935 97.3435 80.6819 96.5876 80.6723 95.7652C80.6523 94.0614 80.6429 92.2623 80.668 91.3336L72.6709 91.1177ZM72.7197 98.936L72.6308 90.9365C72.6311 90.9365 72.6117 90.9367 72.5696 90.9372C72.5294 90.9376 72.4712 90.9382 72.3968 90.939C72.2482 90.9405 72.0352 90.9427 71.7732 90.9453C71.2491 90.9506 70.5293 90.9577 69.7356 90.965C68.1408 90.9796 66.2726 90.9949 65.0883 90.9986L65.1133 98.9985L65.1382 106.998C67.5992 106.991 72.7715 106.936 72.8087 106.936L72.7197 98.936ZM65.1133 98.9985H73.1133V83.0073H65.1133H57.1133V98.9985H65.1133ZM65.1133 83.0073V91.0073H77.1367V83.0073V75.0073H65.1133V83.0073ZM77.1367 83.0073H85.1367V80.1079H77.1367H69.1367V83.0073H77.1367ZM77.1367 80.1079L77.8439 72.1392L76.1164 71.9859L75.4092 79.9546L74.702 87.9233L76.4295 88.0766L77.1367 80.1079ZM75.4092 79.9546L76.1192 71.9862C74.3062 71.8246 72.5274 71.3729 70.8486 70.6465L67.6719 77.9888L64.4951 85.331C67.7362 86.7333 71.1803 87.6095 74.6992 87.923L75.4092 79.9546ZM67.6719 77.9888L70.8488 70.6466C72.8877 71.5288 73.7515 73.8444 72.9256 75.7902L65.5615 72.6646L58.1974 69.5389C55.6242 75.6014 58.3786 82.6844 64.495 85.3309L67.6719 77.9888ZM65.5615 72.6646L72.9254 75.7909C72.0839 77.7729 69.7409 78.7777 67.6591 77.8773L70.835 70.5347L74.0108 63.1921C67.8517 60.5281 60.7867 63.44 58.1977 69.5382L65.5615 72.6646ZM70.835 70.5347L67.6581 77.8768C70.12 78.9421 72.7354 79.606 75.4051 79.8439L76.1152 71.8755L76.8253 63.9071C75.8569 63.8208 74.907 63.5798 74.0118 63.1925L70.835 70.5347ZM76.1152 71.8755L75.3992 79.8434L76.4207 79.9352L77.1367 71.9673L77.8528 63.9994L76.8313 63.9076L76.1152 71.8755ZM77.1367 71.9673H85.1367V68.3647H77.1367H69.1367V71.9673H77.1367ZM77.1367 68.3647V76.3647H87.7539V68.3647V60.3647H77.1367V68.3647ZM87.7539 68.3647L95.4992 66.3623L90.8801 48.4961L83.1348 50.4985L75.3894 52.501L80.0086 70.3672L87.7539 68.3647ZM83.1348 50.4985L91.0051 49.0643C90.6805 47.2826 90.2283 45.5452 89.6593 43.8631L82.0811 46.4263L74.5028 48.9895C74.8248 49.9414 75.0806 50.9243 75.2644 51.9328L83.1348 50.4985ZM82.0811 46.4263L89.8357 44.4603L89.8006 44.3216L82.0459 46.2876L74.2912 48.2536L74.3264 48.3922L82.0811 46.4263ZM82.0459 46.2876L74.7166 43.081L74.7098 43.0967L82.0391 46.3032L89.3683 49.5098L89.3752 49.4941L82.0459 46.2876ZM82.0391 46.3032L89.6056 43.7058C84.6696 29.3267 71.105 18.9146 55.0469 18.9146V26.9146V34.9146C63.9819 34.9146 71.6602 40.7083 74.4725 48.9007L82.0391 46.3032ZM55.0469 26.9146L55.0468 18.9146C34.7832 18.9147 18.4863 35.4784 18.4863 55.7495H26.4863H34.4863C34.4863 44.1705 43.7635 34.9146 55.0469 34.9146L55.0469 26.9146ZM26.4863 55.7495L18.4863 55.7496C18.4864 66.4389 23.019 76.0844 30.2473 82.811L35.6973 76.9546L41.1472 71.0981C37.0516 67.2868 34.4864 61.8346 34.4863 55.7495L26.4863 55.7495ZM35.6973 76.9546H27.6973V98.9995H35.6973H43.6973V76.9546H35.6973ZM35.6973 98.9995L35.7046 90.9995C33.7474 90.9977 32.8745 90.9825 31.9893 90.9675C31.0458 90.9516 30.0935 90.936 28.0488 90.936L28.0488 98.936L28.0488 106.936C29.9802 106.936 30.8389 106.95 31.719 106.965C32.6573 106.981 33.6206 106.998 35.6899 107L35.6973 98.9995ZM28.0488 98.936H36.0488V80.687H28.0488H20.0488V98.936H28.0488ZM28.0488 80.687L33.9762 75.3143C29.3114 70.1678 26.4541 63.3055 26.4541 55.7495L18.4541 55.7495L10.4541 55.7495C10.4542 67.4174 14.8842 78.0753 22.1214 86.0597L28.0488 80.687ZM18.4541 55.7495H26.4541C26.4541 39.6912 39.3275 26.8043 55.0469 26.8042L55.0469 18.8042L55.0468 10.8042C30.3466 10.8043 10.4541 30.9997 10.4541 55.7495H18.4541Z" fill="white" style="fill:white;fill-opacity:1;" mask="url(#path-5-outside-2_32_193)"/>
</svg>
