<svg width="398" height="118" viewBox="0 0 398 118" fill="none" xmlns="http://www.w3.org/2000/svg">
<g clip-path="url(#clip0_32_140)">
<mask id="path-1-outside-1_32_140" maskUnits="userSpaceOnUse" x="78" y="13.999" width="320" height="95" fill="black">
<rect fill="white" x="78" y="13.999" width="320" height="95"/>
<path fill-rule="evenodd" clip-rule="evenodd" d="M388.12 97C388.12 98.1046 387.225 99 386.12 99H89C87.8954 99 87 98.1046 87 97V88.3721L87.5487 77.7976C87.5867 77.0653 88.0223 76.4126 88.6839 76.0965L96.9209 72.1618C97.7608 71.7607 98.2128 70.8331 98.0114 69.9244L88.1496 25.4318C87.8728 24.1831 88.8231 22.999 90.1022 22.999H386.12C387.225 22.999 388.12 23.8945 388.12 24.999V97Z"/>
</mask>
<path fill-rule="evenodd" clip-rule="evenodd" d="M388.12 97C388.12 98.1046 387.225 99 386.12 99H89C87.8954 99 87 98.1046 87 97V88.3721L87.5487 77.7976C87.5867 77.0653 88.0223 76.4126 88.6839 76.0965L96.9209 72.1618C97.7608 71.7607 98.2128 70.8331 98.0114 69.9244L88.1496 25.4318C87.8728 24.1831 88.8231 22.999 90.1022 22.999H386.12C387.225 22.999 388.12 23.8945 388.12 24.999V97Z" fill="black" style="fill:black;fill-opacity:1;"/>
<path d="M87 88.3721L78.0121 87.9057L78 88.1387V88.3721H87ZM96.9209 72.1618L93.0416 64.0408L96.9209 72.1618ZM98.0114 69.9244L89.2247 71.872L98.0114 69.9244ZM88.6839 76.0965L84.8046 67.9755L88.6839 76.0965ZM386.12 99V90H89V99V108H386.12V99ZM87 97H96V88.3721H87H78V97H87ZM87 88.3721L95.9879 88.8384L96.5366 78.2639L87.5487 77.7976L78.5608 77.3312L78.0121 87.9057L87 88.3721ZM88.6839 76.0965L92.5633 84.2176L100.8 80.2829L96.9209 72.1618L93.0416 64.0408L84.8046 67.9755L88.6839 76.0965ZM98.0114 69.9244L106.798 67.9768L96.9363 23.4842L88.1496 25.4318L79.3628 27.3794L89.2247 71.872L98.0114 69.9244ZM90.1022 22.999V31.999H386.12V22.999V13.999H90.1022V22.999ZM388.12 24.999H379.12V97H388.12H397.12V24.999H388.12ZM386.12 22.999V31.999C382.254 31.999 379.12 28.865 379.12 24.999H388.12H397.12C397.12 18.9239 392.195 13.999 386.12 13.999V22.999ZM96.9209 72.1618L100.8 80.2829C105.419 78.0763 107.906 72.9748 106.798 67.9768L98.0114 69.9244L89.2247 71.872C88.5197 68.6914 90.102 65.445 93.0416 64.0408L96.9209 72.1618ZM87.5487 77.7976L96.5366 78.2639C96.4036 80.8268 94.8789 83.1114 92.5633 84.2176L88.6839 76.0965L84.8046 67.9755C81.1657 69.7138 78.7698 73.3039 78.5608 77.3312L87.5487 77.7976ZM89 99V90C92.866 90 96 93.134 96 97H87H78C78 103.075 82.9249 108 89 108V99ZM88.1496 25.4318L96.9363 23.4842C97.9051 27.8548 94.5789 31.999 90.1022 31.999V22.999V13.999C83.0674 13.999 77.8405 20.5114 79.3628 27.3794L88.1496 25.4318ZM386.12 99V108C392.195 108 397.12 103.075 397.12 97H388.12H379.12C379.12 93.134 382.254 90 386.12 90V99Z" fill="white" style="fill:white;fill-opacity:1;" mask="url(#path-1-outside-1_32_140)"/>
<path d="M133.903 61V35.8H148.735C151.039 35.8 152.983 36.052 154.567 36.556C156.151 37.06 157.351 37.768 158.167 38.6801C158.983 39.5921 159.391 40.66 159.391 41.884C159.391 43.348 158.983 44.584 158.167 45.592C157.351 46.576 156.103 47.26 154.423 47.644L154.567 46.996C155.623 47.2361 156.619 47.62 157.555 48.148C158.491 48.652 159.247 49.324 159.823 50.164C160.423 50.98 160.723 52 160.723 53.2241C160.723 54.8081 160.375 56.1041 159.679 57.1121C158.983 58.1201 158.071 58.9121 156.943 59.4881C155.839 60.0401 154.639 60.4361 153.343 60.6761C152.071 60.892 150.847 61 149.671 61H133.903ZM141.103 54.8801H149.815C150.439 54.8801 151.003 54.8081 151.507 54.664C152.011 54.5201 152.407 54.2921 152.695 53.9801C153.007 53.6681 153.163 53.26 153.163 52.7561C153.163 52.156 152.959 51.7121 152.551 51.4241C152.143 51.136 151.663 50.944 151.111 50.8481C150.559 50.7281 150.067 50.6681 149.635 50.6681H141.103V54.8801ZM141.103 45.4481H148.339C149.059 45.4481 149.671 45.3881 150.175 45.2681C150.703 45.1241 151.099 44.92 151.363 44.656C151.651 44.392 151.795 44.044 151.795 43.6121C151.795 42.9881 151.459 42.556 150.787 42.316C150.115 42.052 149.275 41.92 148.267 41.92H141.103V45.4481Z" fill="white" style="fill:white;fill-opacity:1;"/>
<path d="M173.066 61V49.732L173.786 52.504L160.25 35.8H169.61L179.438 48.5081H174.65L184.226 35.8H193.01L180.734 51.5321L180.914 49.444V61H173.066Z" fill="white" style="fill:white;fill-opacity:1;"/>
<path d="M229.206 61V35.8H236.982V61H229.206ZM209.154 61V35.8H216.93V61H209.154ZM212.07 51.9641L212.142 45.1961H233.598V51.9641H212.07Z" fill="white" style="fill:white;fill-opacity:1;"/>
<path d="M256.695 61.2161C253.935 61.2161 251.523 60.688 249.459 59.632C247.395 58.576 245.787 57.1241 244.635 55.2761C243.507 53.4281 242.943 51.316 242.943 48.9401V35.8H250.791V48.7961C250.791 49.9481 251.043 50.956 251.547 51.82C252.051 52.684 252.747 53.3561 253.635 53.8361C254.523 54.316 255.543 54.5561 256.695 54.5561C257.895 54.5561 258.951 54.316 259.863 53.8361C260.775 53.3561 261.483 52.684 261.987 51.82C262.515 50.956 262.779 49.9481 262.779 48.7961V35.8H270.447V48.9401C270.447 51.316 269.871 53.4281 268.719 55.2761C267.591 57.1241 265.995 58.576 263.931 59.632C261.891 60.688 259.479 61.2161 256.695 61.2161Z" fill="white" style="fill:white;fill-opacity:1;"/>
<path d="M276.419 61V35.8H283.115L294.599 50.0201H289.631L301.115 35.8H307.811V61H300.323V54.628C300.323 52.636 300.371 50.7641 300.467 49.0121C300.563 47.26 300.755 45.472 301.043 43.648L301.799 46.0601L293.303 55.708H290.927L282.287 45.916L283.187 43.648C283.475 45.472 283.667 47.26 283.763 49.0121C283.859 50.7641 283.907 52.636 283.907 54.628V61H276.419Z" fill="white" style="fill:white;fill-opacity:1;"/>
<path d="M309.654 61L322.326 35.8H329.022L341.622 61H333.774L327.042 47.824C326.754 47.2481 326.49 46.72 326.25 46.24C326.034 45.736 325.842 45.2561 325.674 44.8C325.506 44.344 325.35 43.9121 325.206 43.504C325.062 43.0721 324.93 42.6521 324.81 42.244H326.358C326.238 42.676 326.094 43.12 325.926 43.576C325.782 44.008 325.614 44.452 325.422 44.908C325.23 45.364 325.014 45.832 324.774 46.312C324.558 46.7921 324.318 47.2961 324.054 47.824L317.358 61H309.654ZM315.738 57.6161L318.114 52.3241H333.306L334.314 57.6161H315.738Z" fill="white" style="fill:white;fill-opacity:1;"/>
<path d="M343.474 61V35.8H350.782L367.414 51.82L366.118 51.316C365.974 50.236 365.854 49.2761 365.758 48.4361C365.686 47.5961 365.626 46.8401 365.578 46.168C365.53 45.472 365.494 44.824 365.47 44.224C365.446 43.624 365.422 43.024 365.398 42.424C365.398 41.824 365.398 41.176 365.398 40.48V35.8H372.886V61H365.506L347.686 43.3601L350.242 44.224C350.314 44.512 350.386 44.8361 350.458 45.1961C350.53 45.5321 350.59 45.9401 350.638 46.42C350.71 46.9001 350.77 47.4881 350.818 48.1841C350.866 48.8801 350.902 49.72 350.926 50.7041C350.95 51.6641 350.962 52.8041 350.962 54.1241V61H343.474Z" fill="white" style="fill:white;fill-opacity:1;"/>
<path d="M132.627 87V68.8H135.929L150.125 83.022L149.813 83.126C149.726 82.5541 149.648 81.9734 149.579 81.3841C149.527 80.7774 149.484 80.1707 149.449 79.564C149.414 78.9574 149.38 78.3507 149.345 77.744C149.328 77.1374 149.31 76.548 149.293 75.9761C149.293 75.3867 149.293 74.8147 149.293 74.2601V68.8H152.647V87H149.293L135.045 72.986L135.461 72.8041C135.496 73.0987 135.53 73.4454 135.565 73.844C135.6 74.2427 135.643 74.6761 135.695 75.1441C135.747 75.612 135.79 76.1147 135.825 76.6521C135.877 77.1721 135.912 77.7181 135.929 78.2901C135.964 78.8447 135.981 79.3994 135.981 79.954V87H132.627Z" fill="white" style="fill:white;fill-opacity:1;"/>
<path d="M167.57 87.2601C165.941 87.2601 164.442 87.0261 163.072 86.5581C161.72 86.0727 160.542 85.4054 159.536 84.556C158.531 83.6894 157.751 82.6927 157.196 81.5661C156.659 80.4221 156.39 79.1914 156.39 77.8741C156.39 76.5567 156.659 75.3347 157.196 74.208C157.751 73.064 158.531 72.0674 159.536 71.218C160.542 70.3514 161.72 69.684 163.072 69.216C164.442 68.7307 165.941 68.488 167.57 68.488C169.2 68.488 170.69 68.7307 172.042 69.216C173.412 69.684 174.59 70.3514 175.578 71.218C176.584 72.0674 177.364 73.064 177.918 74.208C178.473 75.3347 178.75 76.5567 178.75 77.8741C178.75 79.1914 178.473 80.4221 177.918 81.5661C177.364 82.6927 176.584 83.6894 175.578 84.556C174.59 85.4054 173.412 86.0727 172.042 86.5581C170.69 87.0261 169.2 87.2601 167.57 87.2601ZM167.57 84.036C168.714 84.036 169.754 83.8801 170.69 83.5681C171.626 83.2561 172.441 82.8227 173.134 82.2681C173.828 81.6961 174.365 81.0374 174.746 80.292C175.128 79.5467 175.318 78.7407 175.318 77.8741C175.318 77.0074 175.128 76.2014 174.746 75.4561C174.365 74.7107 173.828 74.0607 173.134 73.5061C172.441 72.9341 171.626 72.4921 170.69 72.18C169.754 71.868 168.714 71.7121 167.57 71.7121C166.444 71.7121 165.404 71.868 164.45 72.18C163.497 72.4921 162.674 72.9341 161.98 73.5061C161.304 74.0607 160.776 74.7107 160.394 75.4561C160.03 76.2014 159.848 77.0074 159.848 77.8741C159.848 78.7407 160.03 79.5467 160.394 80.292C160.776 81.0374 161.304 81.6961 161.98 82.2681C162.674 82.8227 163.497 83.2561 164.45 83.5681C165.404 83.8801 166.444 84.036 167.57 84.036Z" fill="white" style="fill:white;fill-opacity:1;"/>
<path d="M186.707 87V71.92H179.687V68.8H197.263V71.92H190.087V87H186.707Z" fill="white" style="fill:white;fill-opacity:1;"/>
<path d="M209.12 87V68.8H219.208C220.768 68.8 222.068 68.982 223.108 69.3461C224.165 69.6927 224.962 70.204 225.5 70.8801C226.037 71.556 226.306 72.3794 226.306 73.35C226.306 74.3207 225.985 75.1614 225.344 75.8721C224.72 76.5654 223.792 77.0594 222.562 77.354L222.718 76.8601C223.498 77.0334 224.234 77.3107 224.928 77.6921C225.621 78.0734 226.184 78.5847 226.618 79.2261C227.051 79.8674 227.268 80.656 227.268 81.592C227.268 82.6667 227.042 83.5594 226.592 84.2701C226.158 84.9634 225.578 85.5094 224.85 85.9081C224.122 86.3067 223.324 86.5927 222.458 86.7661C221.591 86.9221 220.733 87 219.884 87H209.12ZM212.422 83.958H219.988C220.75 83.958 221.418 83.8714 221.99 83.6981C222.579 83.5247 223.038 83.2561 223.368 82.8921C223.697 82.5107 223.862 82.0427 223.862 81.488C223.862 80.8467 223.654 80.3527 223.238 80.0061C222.822 79.6594 222.302 79.4167 221.678 79.278C221.054 79.1221 220.447 79.044 219.858 79.044H212.422V83.958ZM212.422 76.106H219.572C220.178 76.106 220.733 76.0194 221.236 75.8461C221.738 75.6727 222.137 75.4214 222.432 75.092C222.726 74.7627 222.874 74.3727 222.874 73.9221C222.874 73.1767 222.527 72.6481 221.834 72.3361C221.158 72.0067 220.317 71.842 219.312 71.842H212.422V76.106Z" fill="white" style="fill:white;fill-opacity:1;"/>
<path d="M236.953 87V78.862L237.473 80.8641L227.697 68.8H232.169L239.267 77.9781H238.097L245.013 68.8H249.069L240.203 80.162L240.333 78.654V87H236.953Z" fill="white" style="fill:white;fill-opacity:1;"/>
<path d="M269.811 87.2601C268.32 87.2601 266.916 87.0607 265.599 86.6621C264.299 86.2634 263.146 85.674 262.141 84.8941C261.135 84.1141 260.347 83.1434 259.775 81.9821C259.203 80.8034 258.917 79.4341 258.917 77.8741C258.917 76.5567 259.203 75.3347 259.775 74.208C260.364 73.064 261.17 72.076 262.193 71.244C263.233 70.3947 264.446 69.736 265.833 69.2681C267.219 68.8001 268.71 68.566 270.305 68.566C271.639 68.566 272.87 68.7134 273.997 69.008C275.141 69.3027 276.137 69.6841 276.987 70.1521C277.853 70.62 278.538 71.114 279.041 71.634L276.909 74.0261C276.319 73.5754 275.678 73.1854 274.985 72.856C274.309 72.5094 273.572 72.232 272.775 72.024C271.995 71.816 271.163 71.7121 270.279 71.7121C269.187 71.7121 268.164 71.868 267.211 72.18C266.275 72.4921 265.451 72.9254 264.741 73.48C264.047 74.0347 263.501 74.6847 263.103 75.43C262.704 76.1754 262.505 76.9901 262.505 77.8741C262.505 78.9834 262.713 79.9367 263.129 80.7341C263.545 81.514 264.108 82.1554 264.819 82.6581C265.547 83.1607 266.37 83.5334 267.289 83.7761C268.207 84.0014 269.152 84.1141 270.123 84.1141C271.145 84.1141 272.09 84.0187 272.957 83.828C273.841 83.6374 274.603 83.3687 275.245 83.022C275.903 82.6754 276.406 82.268 276.753 81.8C277.117 81.3147 277.281 80.786 277.247 80.2141L277.221 79.8241L277.715 80.578H270.123V77.614H280.705C280.739 77.8741 280.765 78.1081 280.783 78.3161C280.8 78.5241 280.809 78.6974 280.809 78.8361C280.809 78.9574 280.809 79.0527 280.809 79.1221C280.809 80.4914 280.54 81.6874 280.003 82.71C279.483 83.7327 278.729 84.5821 277.741 85.258C276.77 85.9167 275.609 86.4194 274.257 86.7661C272.922 87.0954 271.44 87.2601 269.811 87.2601Z" fill="white" style="fill:white;fill-opacity:1;"/>
<path d="M284.368 87V68.8H299.916V71.868H287.696V83.932H300.02V87H284.368ZM286.188 79.2001V76.1841H298.59V79.2001H286.188Z" fill="white" style="fill:white;fill-opacity:1;"/>
<path d="M304.482 87V68.8H307.784L321.98 83.022L321.668 83.126C321.581 82.5541 321.503 81.9734 321.434 81.3841C321.382 80.7774 321.339 80.1707 321.304 79.564C321.269 78.9574 321.235 78.3507 321.2 77.744C321.183 77.1374 321.165 76.548 321.148 75.9761C321.148 75.3867 321.148 74.8147 321.148 74.2601V68.8H324.502V87H321.148L306.9 72.986L307.316 72.8041C307.351 73.0987 307.385 73.4454 307.42 73.844C307.455 74.2427 307.498 74.6761 307.55 75.1441C307.602 75.612 307.645 76.1147 307.68 76.6521C307.732 77.1721 307.767 77.7181 307.784 78.2901C307.819 78.8447 307.836 79.3994 307.836 79.954V87H304.482Z" fill="white" style="fill:white;fill-opacity:1;"/>
<path d="M335.942 87L344.886 68.8H348.474L357.366 87H353.752L347.902 75.092C347.729 74.7454 347.564 74.416 347.408 74.104C347.252 73.7747 347.105 73.454 346.966 73.142C346.827 72.8127 346.689 72.4834 346.55 72.154C346.411 71.8074 346.281 71.4434 346.16 71.062L347.044 71.036C346.905 71.4347 346.767 71.8161 346.628 72.18C346.489 72.5267 346.342 72.8647 346.186 73.194C346.03 73.5234 345.874 73.8527 345.718 74.182C345.562 74.494 345.406 74.8234 345.25 75.1701L339.426 87H335.942ZM339.92 83.1001L341.168 80.162H351.984L352.478 83.1001H339.92Z" fill="white" style="fill:white;fill-opacity:1;"/>
<path d="M360.336 87V83.828H365.146V71.972H360.336V68.8H373.336V71.972H368.526V83.828H373.336V87H360.336Z" fill="white" style="fill:white;fill-opacity:1;"/>
<path d="M62.5498 33.5C66.5509 33.5 70.1169 34.921 73.0146 37.6787C75.9178 40.4416 77.5 43.9365 77.5 47.9453C77.5 49.974 77.1511 51.9435 76.4033 53.8047C75.6531 55.6718 74.4548 57.4746 73.001 59.2041L72.957 59.2559L72.9121 59.3057C71.4512 60.9413 69.4934 62.9193 67.0771 65.2188C64.6412 67.5371 61.2671 70.5943 56.9756 74.376L54.0508 76.9531L51.083 74.4258C46.5442 70.5609 43.0428 67.4273 40.6309 65.0527C38.3015 62.7594 36.4048 60.8002 34.9688 59.1924L34.9238 59.1426L34.8799 59.0908C33.4453 57.3842 32.246 55.6051 31.5254 53.7764C30.8032 51.9435 30.5 49.9709 30.5 47.9453C30.5 43.9365 32.0822 40.4416 34.9854 37.6787C37.8831 34.921 41.4491 33.5 45.4502 33.5C47.7573 33.5 49.9839 33.9275 52.0811 34.8203C52.7532 35.1065 53.3979 35.4361 54.0127 35.8066C54.6501 35.4276 55.3194 35.0929 56.0166 34.8037C58.1038 33.9379 60.2925 33.5 62.5498 33.5Z" fill="black" stroke="white" style="fill:black;fill-opacity:1;stroke:white;stroke-opacity:1;" stroke-width="9"/>
<path d="M24 50L33 57.5L63 81L94 108H86V118H64H11.5V88L24 50Z" fill="white" style="fill:white;fill-opacity:1;"/>
<mask id="path-6-outside-2_32_140" maskUnits="userSpaceOnUse" x="0" y="0" width="115" height="118" fill="black">
<rect fill="white" width="115" height="118"/>
<path d="M54.54 9C74.2691 9 91.0419 21.6613 97.375 39.3438C97.5232 39.7056 97.6517 40.0786 97.7588 40.4619C98.3735 42.3282 98.8717 44.2453 99.2471 46.2041L104.917 68.1279C105.699 71.1528 105.048 74.3735 103.155 76.8477C101.262 79.3215 98.3405 80.7705 95.2441 80.7705H92.0273V88.9004C92.0273 94.4744 87.5522 98.9931 82.0312 98.9932H76.4736C76.399 101.755 76.5342 108.724 76.5342 108.724C76.5005 108.724 70.0864 108.793 67.0664 108.803V88.9004H82.0312V85.293L79.8809 85.1016C76.563 84.8059 73.3124 83.9799 70.251 82.6553C67.714 81.5573 66.5388 78.5908 67.626 76.0293C68.7133 73.4677 71.6513 72.2813 74.1885 73.3789C76.2775 74.2828 78.4958 74.8461 80.7598 75.0479L82.0312 75.1611V70.6777H95.2441L89.4951 48.4434C89.1787 46.7073 88.7389 45.0149 88.1846 43.376L88.1406 43.2031L88.1318 43.2227C83.3105 29.1775 70.092 19.0928 54.54 19.0928C34.9102 19.093 18.9973 35.1591 18.9971 54.9775C18.9971 65.4156 23.4134 74.8109 30.46 81.3682V108.804C25.4486 108.799 25.8893 108.724 20.9404 108.724V86.0137C13.5344 77.8429 9 66.9396 9 54.9775C9.00021 29.5851 29.3893 9.00024 54.54 9Z"/>
</mask>
<path d="M54.54 9C74.2691 9 91.0419 21.6613 97.375 39.3438C97.5232 39.7056 97.6517 40.0786 97.7588 40.4619C98.3735 42.3282 98.8717 44.2453 99.2471 46.2041L104.917 68.1279C105.699 71.1528 105.048 74.3735 103.155 76.8477C101.262 79.3215 98.3405 80.7705 95.2441 80.7705H92.0273V88.9004C92.0273 94.4744 87.5522 98.9931 82.0312 98.9932H76.4736C76.399 101.755 76.5342 108.724 76.5342 108.724C76.5005 108.724 70.0864 108.793 67.0664 108.803V88.9004H82.0312V85.293L79.8809 85.1016C76.563 84.8059 73.3124 83.9799 70.251 82.6553C67.714 81.5573 66.5388 78.5908 67.626 76.0293C68.7133 73.4677 71.6513 72.2813 74.1885 73.3789C76.2775 74.2828 78.4958 74.8461 80.7598 75.0479L82.0312 75.1611V70.6777H95.2441L89.4951 48.4434C89.1787 46.7073 88.7389 45.0149 88.1846 43.376L88.1406 43.2031L88.1318 43.2227C83.3105 29.1775 70.092 19.0928 54.54 19.0928C34.9102 19.093 18.9973 35.1591 18.9971 54.9775C18.9971 65.4156 23.4134 74.8109 30.46 81.3682V108.804C25.4486 108.799 25.8893 108.724 20.9404 108.724V86.0137C13.5344 77.8429 9 66.9396 9 54.9775C9.00021 29.5851 29.3893 9.00024 54.54 9Z" fill="black" style="fill:black;fill-opacity:1;"/>
<path d="M54.54 9V0H54.54L54.54 9ZM97.375 39.3438L88.902 42.3784L88.9701 42.5683L89.0465 42.7549L97.375 39.3438ZM97.7588 40.4619L89.0908 42.884L89.1462 43.082L89.2105 43.2773L97.7588 40.4619ZM99.2471 46.2041L90.4079 47.8979L90.4619 48.1797L90.5337 48.4575L99.2471 46.2041ZM104.917 68.1279L113.63 65.8748L113.63 65.8745L104.917 68.1279ZM103.155 76.8477L110.303 82.3168L110.303 82.3165L103.155 76.8477ZM92.0273 80.7705V71.7705H83.0273V80.7705H92.0273ZM82.0312 98.9932V107.993H82.0313L82.0312 98.9932ZM76.4736 98.9932V89.9932H67.7135L67.4769 98.7501L76.4736 98.9932ZM76.5342 108.724L76.6343 117.723L85.7085 117.622L85.5325 108.549L76.5342 108.724ZM67.0664 108.803H58.0664V117.831L67.0944 117.803L67.0664 108.803ZM67.0664 88.9004V79.9004H58.0664V88.9004H67.0664ZM82.0312 88.9004V97.9004H91.0312V88.9004H82.0312ZM82.0312 85.293H91.0312V77.0585L82.8292 76.3284L82.0312 85.293ZM79.8809 85.1016L79.0821 94.066L79.0829 94.0661L79.8809 85.1016ZM70.251 82.6553L66.6765 90.915L66.677 90.9152L70.251 82.6553ZM67.626 76.0293L59.3415 72.5126L59.3413 72.513L67.626 76.0293ZM74.1885 73.3789L77.7625 65.119L77.7619 65.1187L74.1885 73.3789ZM80.7598 75.0479L79.961 84.0123L79.9611 84.0123L80.7598 75.0479ZM82.0312 75.1611L81.2326 84.1256L91.0312 84.9986V75.1611H82.0312ZM82.0312 70.6777V61.6777H73.0312V70.6777H82.0312ZM95.2441 70.6777V79.6777H106.867L103.958 68.4247L95.2441 70.6777ZM89.4951 48.4434L80.6409 50.0569L80.6997 50.3792L80.7817 50.6963L89.4951 48.4434ZM88.1846 43.376L79.4621 45.5936L79.5477 45.9303L79.659 46.2595L88.1846 43.376ZM88.1406 43.2031L96.8631 40.9855L90.5116 16.0027L79.9333 39.5098L88.1406 43.2031ZM88.1318 43.2227L79.6194 46.1447L87.0047 67.6592L96.3391 46.9159L88.1318 43.2227ZM54.54 19.0928V10.0928H54.5399L54.54 19.0928ZM18.9971 54.9775L9.99707 54.9774V54.9775H18.9971ZM30.46 81.3682H39.46V77.4493L36.5911 74.7796L30.46 81.3682ZM30.46 108.804L30.4517 117.804L39.46 117.812V108.804H30.46ZM20.9404 108.724H11.9404V117.724H20.9404V108.724ZM20.9404 86.0137H29.9404V82.5418L27.6088 79.9694L20.9404 86.0137ZM9 54.9775L0 54.9775V54.9775H9ZM54.54 9V18C70.3004 18 83.7928 28.1131 88.902 42.3784L97.375 39.3438L105.848 36.3091C98.291 15.2096 78.2377 0 54.54 0V9ZM97.375 39.3438L89.0465 42.7549C89.0638 42.7972 89.0785 42.84 89.0908 42.884L97.7588 40.4619L106.427 38.0398C106.225 37.3171 105.983 36.614 105.704 35.9326L97.375 39.3438ZM97.7588 40.4619L89.2105 43.2773C89.7043 44.7767 90.1054 46.3191 90.4079 47.8979L99.2471 46.2041L108.086 44.5103C107.638 42.1715 107.043 39.8797 106.307 37.6465L97.7588 40.4619ZM99.2471 46.2041L90.5337 48.4575L96.2037 70.3814L104.917 68.1279L113.63 65.8745L107.96 43.9507L99.2471 46.2041ZM104.917 68.1279L96.2036 70.3811C96.2955 70.7366 96.2144 71.1083 96.0074 71.3788L103.155 76.8477L110.303 82.3165C113.882 77.6388 115.103 71.5691 113.63 65.8748L104.917 68.1279ZM103.155 76.8477L96.0077 71.3785C95.8053 71.643 95.518 71.7705 95.2441 71.7705V80.7705V89.7705C101.163 89.7705 106.719 87.0001 110.303 82.3168L103.155 76.8477ZM95.2441 80.7705V71.7705H92.0273V80.7705V89.7705H95.2441V80.7705ZM92.0273 80.7705H83.0273V88.9004H92.0273H101.027V80.7705H92.0273ZM92.0273 88.9004H83.0273C83.0273 89.5858 82.5 89.9932 82.0312 89.9932L82.0312 98.9932L82.0313 107.993C92.6043 107.993 101.027 99.363 101.027 88.9004H92.0273ZM82.0312 98.9932V89.9932H76.4736V98.9932V107.993H82.0312V98.9932ZM76.4736 98.9932L67.4769 98.7501C67.4341 100.335 67.4524 102.942 67.4765 105C67.489 106.061 67.5038 107.034 67.5155 107.74C67.5213 108.094 67.5264 108.382 67.53 108.582C67.5318 108.682 67.5333 108.76 67.5343 108.814C67.5348 108.841 67.5352 108.861 67.5354 108.875C67.5356 108.883 67.5357 108.888 67.5357 108.892C67.5358 108.894 67.5358 108.895 67.5358 108.896C67.5358 108.897 67.5359 108.897 67.5359 108.898C67.5359 108.898 67.5359 108.898 67.5359 108.898C67.5359 108.898 67.5359 108.898 76.5342 108.724C85.5325 108.549 85.5325 108.549 85.5325 108.549C85.5325 108.549 85.5325 108.549 85.5325 108.549C85.5325 108.549 85.5325 108.549 85.5325 108.548C85.5325 108.548 85.5324 108.547 85.5324 108.545C85.5324 108.542 85.5323 108.538 85.5322 108.532C85.5319 108.519 85.5316 108.501 85.5311 108.476C85.5302 108.426 85.5288 108.352 85.527 108.256C85.5236 108.064 85.5187 107.786 85.513 107.443C85.5017 106.757 85.4873 105.814 85.4753 104.789C85.4505 102.671 85.4385 100.414 85.4704 99.2362L76.4736 98.9932ZM76.5342 108.724L76.4341 99.7242C76.4343 99.7242 76.4096 99.7245 76.3591 99.725C76.31 99.7255 76.2383 99.7263 76.1465 99.7273C75.9628 99.7292 75.6986 99.732 75.373 99.7353C74.7217 99.742 73.8253 99.7509 72.8361 99.7602C70.849 99.7788 68.5167 99.7982 67.0384 99.8028L67.0664 108.803L67.0944 117.803C70.1578 117.793 76.6107 117.723 76.6343 117.723L76.5342 108.724ZM67.0664 108.803H76.0664V88.9004H67.0664H58.0664V108.803H67.0664ZM67.0664 88.9004V97.9004H82.0312V88.9004V79.9004H67.0664V88.9004ZM82.0312 88.9004H91.0312V85.293H82.0312H73.0312V88.9004H82.0312ZM82.0312 85.293L82.8292 76.3284L80.6788 76.137L79.8809 85.1016L79.0829 94.0661L81.2333 94.2575L82.0312 85.293ZM79.8809 85.1016L80.6796 76.1371C78.3206 75.9269 76.0067 75.3393 73.8249 74.3953L70.251 82.6553L66.677 90.9152C70.6181 92.6204 74.8054 93.685 79.0821 94.066L79.8809 85.1016ZM70.251 82.6553L73.8255 74.3956C75.8786 75.2841 76.734 77.6057 75.9106 79.5456L67.626 76.0293L59.3413 72.513C56.3436 79.5759 59.5494 87.8306 66.6765 90.915L70.251 82.6553ZM67.626 76.0293L75.9105 79.546C75.0682 81.5302 72.7134 82.5469 70.6151 81.6391L74.1885 73.3789L77.7619 65.1187C70.5891 62.0157 62.3585 65.4053 59.3415 72.5126L67.626 76.0293ZM74.1885 73.3789L70.6145 81.6388C73.584 82.9237 76.7392 83.7253 79.961 84.0123L80.7598 75.0479L81.5585 66.0834C80.2524 65.967 78.9709 65.6418 77.7625 65.119L74.1885 73.3789ZM80.7598 75.0479L79.9611 84.0123L81.2326 84.1256L82.0312 75.1611L82.8299 66.1966L81.5584 66.0834L80.7598 75.0479ZM82.0312 75.1611H91.0312V70.6777H82.0312H73.0312V75.1611H82.0312ZM82.0312 70.6777V79.6777H95.2441V70.6777V61.6777H82.0312V70.6777ZM95.2441 70.6777L103.958 68.4247L98.2086 46.1904L89.4951 48.4434L80.7817 50.6963L86.5307 72.9307L95.2441 70.6777ZM89.4951 48.4434L98.3493 46.8298C97.954 44.6609 97.4041 42.5441 96.7101 40.4924L88.1846 43.376L79.659 46.2595C80.0737 47.4857 80.4034 48.7537 80.6409 50.0569L89.4951 48.4434ZM88.1846 43.376L96.9071 41.1584L96.8631 40.9855L88.1406 43.2031L79.4181 45.4207L79.4621 45.5936L88.1846 43.376ZM88.1406 43.2031L79.9333 39.5098L79.9245 39.5294L88.1318 43.2227L96.3391 46.9159L96.3479 46.8964L88.1406 43.2031ZM88.1318 43.2227L96.6443 40.3006C90.6284 22.7755 74.099 10.0928 54.54 10.0928V19.0928V28.0928C66.0851 28.0928 75.9927 35.5795 79.6194 46.1447L88.1318 43.2227ZM54.54 19.0928L54.5399 10.0928C29.8586 10.0931 9.99734 30.27 9.99707 54.9774L18.9971 54.9775L27.9971 54.9776C27.9972 40.0483 39.9618 28.0929 54.5401 28.0928L54.54 19.0928ZM18.9971 54.9775H9.99707C9.99707 68.0052 15.5198 79.7593 24.3288 87.9567L30.46 81.3682L36.5911 74.7796C31.307 69.8624 27.9971 62.8261 27.9971 54.9775H18.9971ZM30.46 81.3682H21.46V108.804H30.46H39.46V81.3682H30.46ZM30.46 108.804L30.4682 99.8037C28.0265 99.8015 26.9354 99.7822 25.8309 99.7633C24.6599 99.7432 23.4795 99.7236 20.9404 99.7236V108.724V117.724C23.3502 117.724 24.4239 117.742 25.5226 117.761C26.6878 117.781 27.882 117.801 30.4517 117.804L30.46 108.804ZM20.9404 108.724H29.9404V86.0137H20.9404H11.9404V108.724H20.9404ZM20.9404 86.0137L27.6088 79.9694C21.6499 73.3953 18 64.627 18 54.9775H9H0C0 69.2521 5.41887 82.2906 14.2721 92.0579L20.9404 86.0137ZM9 54.9775L18 54.9776C18.0002 34.4744 34.4408 18.0002 54.5401 18L54.54 9L54.54 0C24.3378 0.000282288 0.000253677 24.6958 0 54.9775L9 54.9775Z" fill="white" style="fill:white;fill-opacity:1;" mask="url(#path-6-outside-2_32_140)"/>
<path d="M73 29L55.5 38L38 33L45.5 24.5L73 29Z" fill="white" style="fill:white;fill-opacity:1;"/>
<path d="M77.5838 72.0222L76.4519 57.6931L84.9774 47.5846L88.6652 55.1253L77.5838 72.0222Z" fill="white" style="fill:white;fill-opacity:1;"/>
</g>
<defs>
<clipPath id="clip0_32_140">
<rect width="398" height="118" fill="white" style="fill:white;fill-opacity:1;"/>
</clipPath>
</defs>
</svg>
